<?xml version="1.0"?>
<svg xmlns="http://www.w3.org/2000/svg" xmlns:xlink="http://www.w3.org/1999/xlink" xmlns:svgjs="http://svgjs.com/svgjs" version="1.1" width="512" height="512" x="0" y="0" viewBox="0 0 512 512" style="enable-background:new 0 0 512 512" xml:space="preserve" class=""><g>
<g xmlns="http://www.w3.org/2000/svg">
	<g>
		<path d="M460.405,449.736l-33.389-133.562c-5.589-22.331-25.571-37.817-48.591-37.817h-83.474v-94.715    c0-37.444-39.58-61.224-72.484-44.8l-66.779,33.389c-17.076,8.538-27.573,25.704-27.573,44.8V247.9    c-21.224,10.392-39.533,25.976-53.175,45.589c-16.252,23.364-24.843,50.807-24.843,79.36c0,76.712,62.411,139.123,139.123,139.123    c74.848,0,136.07-59.417,139.002-133.558h11.098l23.905,95.634c6.771,27.029,34.053,43.144,60.738,36.431    C450.746,503.79,467.094,476.544,460.405,449.736z M170.62,202.095l66.768-33.383c4.557-2.274,9.802-2.285,14.252-0.316    c0,0,0,0,0.001,0c5.942,2.627,10.034,8.6,10.034,15.246v70.302c-10.282-6.257-21.589-11.232-33.501-14.686v-1.586    c0-9.22-7.475-16.695-16.695-16.695c-9.22,0-16.583,7.475-16.583,16.695V317.2c0,9.206-7.601,16.695-16.806,16.695    c-9.205,0-16.695-7.489-16.695-16.695V217.032h-0.001C161.393,210.664,164.929,204.942,170.62,202.095z M189.22,478.583    c-58.301,0-105.733-47.432-105.733-105.733c0-35.076,16.991-66.807,44.628-86.291V317.2c0,27.616,22.356,50.084,49.973,50.084    s50.084-22.468,50.084-50.084v-42.68c14.523,5.734,27.358,14.542,37.801,25.575c0.203,0.22,0.402,0.442,0.617,0.651    c1.299,1.396,2.571,2.814,3.792,4.277c0.223,0.293,0.451,0.579,0.692,0.856c15.005,18.362,23.88,41.769,23.88,66.969    C294.954,431.151,247.523,478.583,189.22,478.583z M415.846,478.093c-8.788,2.208-17.948-3.044-20.23-12.15l-27.063-108.271    c-1.858-7.432-8.535-12.534-16.196-12.534h-26.804c-2.377-11.7-6.229-23.013-11.366-33.501h64.238    c7.675,0,14.336,5.2,16.198,12.64l33.388,133.551C430.243,466.768,424.798,475.857,415.846,478.093z" fill="#084f8e" data-original="#000000" style="" class=""/>
	</g>
</g>
<g xmlns="http://www.w3.org/2000/svg">
	<g>
		<path d="M261.562,0c-36.822,0-66.779,29.957-66.779,66.779c0,36.822,29.957,66.779,66.779,66.779s66.779-29.957,66.779-66.779    C328.341,29.957,298.384,0,261.562,0z M261.562,100.168c-18.411,0-33.39-14.979-33.39-33.389s14.979-33.39,33.39-33.39    s33.389,14.979,33.389,33.39S279.973,100.168,261.562,100.168z" fill="#084f8e" data-original="#000000" style="" class=""/>
	</g>
</g>
<g xmlns="http://www.w3.org/2000/svg">
</g>
<g xmlns="http://www.w3.org/2000/svg">
</g>
<g xmlns="http://www.w3.org/2000/svg">
</g>
<g xmlns="http://www.w3.org/2000/svg">
</g>
<g xmlns="http://www.w3.org/2000/svg">
</g>
<g xmlns="http://www.w3.org/2000/svg">
</g>
<g xmlns="http://www.w3.org/2000/svg">
</g>
<g xmlns="http://www.w3.org/2000/svg">
</g>
<g xmlns="http://www.w3.org/2000/svg">
</g>
<g xmlns="http://www.w3.org/2000/svg">
</g>
<g xmlns="http://www.w3.org/2000/svg">
</g>
<g xmlns="http://www.w3.org/2000/svg">
</g>
<g xmlns="http://www.w3.org/2000/svg">
</g>
<g xmlns="http://www.w3.org/2000/svg">
</g>
<g xmlns="http://www.w3.org/2000/svg">
</g>
</g></svg>
